Coordinates
version=1
nRows=21
nColumns=12
inDegrees=yes

Units are S.I. units (second, meters, Newtons, ...)
Angles are in degrees

endheader
time	SC_y	SC_z	SC_x	AC_y	AC_z	AC_x	GH_y	GH_z	GH_yy	EL_x	PS_y
       0.0              -56.63          27.88           66.9          45.35          5.289         -6.741         -13.72         -11.58         -36.62          57.88          19.17
   0.01632              -56.63          27.88           66.9          45.35           5.29         -6.739         -13.73         -11.58         -36.61          57.89          19.18
   0.03264              -56.62          27.88          66.89          45.35           5.29         -6.736         -13.74         -11.58         -36.59          57.89          19.19
   0.04896              -56.62          27.88          66.89          45.34          5.291         -6.734         -13.75         -11.58         -36.57           57.9          19.21
   0.06528              -56.61          27.88          66.89          45.34          5.291         -6.731         -13.76         -11.58         -36.55          57.91          19.22
    0.0816              -56.61          27.88          66.88          45.34          5.292         -6.728         -13.78         -11.58         -36.53          57.91          19.24
   0.09792               -56.6          27.87          66.88          45.34          5.293         -6.725         -13.79         -11.58         -36.51          57.92          19.25
    0.1142              -56.59          27.87          66.88          45.33          5.293         -6.722          -13.8         -11.58         -36.48          57.93          19.27
    0.1306              -56.59          27.87          66.87          45.33          5.294         -6.718         -13.82         -11.58         -36.46          57.94          19.29
    0.1469              -56.58          27.87          66.87          45.33          5.295         -6.715         -13.84         -11.58         -36.43          57.95          19.31
    0.1632              -56.57          27.87          66.86          45.32          5.296         -6.711         -13.85         -11.58          -36.4          57.96          19.33
    0.1795              -56.56          27.87          66.86          45.32          5.297         -6.706         -13.87         -11.58         -36.37          57.97          19.35
    0.1958              -56.56          27.86          66.85          45.32          5.298         -6.702          -13.9         -11.58         -36.34          57.99          19.37
    0.2122              -56.55          27.86          66.85          45.31          5.299         -6.697         -13.92         -11.58          -36.3           58.0           19.4
    0.2285              -56.54          27.86          66.84          45.31            5.3         -6.691         -13.94         -11.58         -36.26          58.02          19.43
    0.2448              -56.52          27.86          66.84           45.3          5.302         -6.685         -13.97         -11.58         -36.22          58.03          19.46
    0.2611              -56.51          27.85          66.83          45.29          5.303         -6.679          -14.0         -11.58         -36.17          58.05          19.49
    0.2774               -56.5          27.85          66.82          45.29          5.305         -6.672         -14.03         -11.58         -36.12          58.07          19.53
    0.2938              -56.48          27.85          66.81          45.28          5.307         -6.664         -14.06         -11.58         -36.06          58.09          19.57
    0.3101              -56.47          27.84           66.8          45.27          5.308         -6.656          -14.1         -11.58          -36.0          58.11          19.61
    0.3264              -56.45          27.84          66.79          45.27          5.311         -6.646         -14.14         -11.58         -35.93          58.14          19.66
